<?xml version="1.0" encoding="UTF-8"?>
<svg id="Layer_2" data-name="Layer 2" xmlns="http://www.w3.org/2000/svg" viewBox="0 0 124.59 216.36">
  <defs>
    <style>
      .cls-1 {
        fill: #00b793;
      }

      .cls-2 {
        fill: #6b2ed7;
      }
    </style>
  </defs>
  <g id="Layer_1-2" data-name="Layer 1">
    <g>
      <g>
        <path class="cls-2" d="M118.09,87.39c-3.59,0-6.5-2.91-6.5-6.5v-37.2c0-16.93-13.77-30.7-30.7-30.7s-30.7,13.77-30.7,30.7v37.2c0,3.59-2.91,6.5-6.5,6.5s-6.5-2.91-6.5-6.5v-37.2C37.2,19.6,56.8,0,80.89,0s43.7,19.6,43.7,43.7v37.2c0,3.59-2.91,6.5-6.5,6.5Z"/>
        <path class="cls-2" d="M80.89,114.68c-3.59,0-6.5-2.91-6.5-6.5v-37.2c0-16.93-13.77-30.7-30.7-30.7s-30.7,13.77-30.7,30.7v37.2c0,3.59-2.91,6.5-6.5,6.5S0,111.77,0,108.18v-37.2C0,46.89,19.6,27.29,43.7,27.29s43.7,19.6,43.7,43.7v37.2c0,3.59-2.91,6.5-6.5,6.5Z"/>
        <path class="cls-2" d="M80.9,114.68c-2,0-3.97-.92-5.25-2.66-2.12-2.89-1.5-6.96,1.4-9.09l37.2-27.29c2.89-2.12,6.96-1.5,9.09,1.4,2.12,2.89,1.5,6.96-1.4,9.09l-37.2,27.29c-1.16.85-2.5,1.26-3.84,1.26Z"/>
        <path class="cls-2" d="M6.51,114.68c-2,0-3.97-.92-5.25-2.66-2.12-2.89-1.5-6.96,1.4-9.09l37.2-27.29c2.89-2.12,6.96-1.5,9.09,1.4,2.12,2.89,1.5,6.96-1.4,9.09l-37.2,27.29c-1.16.85-2.5,1.26-3.84,1.26Z"/>
      </g>
      <g>
        <path class="cls-1" d="M43.7,216.36C19.6,216.36,0,196.76,0,172.67v-37.2c0-3.59,2.91-6.5,6.5-6.5s6.5,2.91,6.5,6.5v37.2c0,16.93,13.77,30.7,30.7,30.7s30.7-13.77,30.7-30.7v-37.2c0-3.59,2.91-6.5,6.5-6.5s6.5,2.91,6.5,6.5v37.2c0,24.09-19.6,43.7-43.7,43.7Z"/>
        <path class="cls-1" d="M80.89,189.07c-24.09,0-43.7-19.6-43.7-43.7v-37.2c0-3.59,2.91-6.5,6.5-6.5s6.5,2.91,6.5,6.5v37.2c0,16.93,13.77,30.7,30.7,30.7s30.7-13.77,30.7-30.7v-37.2c0-3.59,2.91-6.5,6.5-6.5s6.5,2.91,6.5,6.5v37.2c0,24.09-19.6,43.7-43.7,43.7Z"/>
        <path class="cls-1" d="M6.51,141.97c-2,0-3.97-.92-5.25-2.66-2.12-2.89-1.5-6.96,1.4-9.09l37.2-27.29c2.89-2.12,6.96-1.5,9.09,1.4,2.12,2.89,1.5,6.96-1.4,9.09l-37.2,27.29c-1.16.85-2.5,1.26-3.84,1.26Z"/>
        <path class="cls-1" d="M80.9,141.97c-2,0-3.97-.92-5.25-2.66-2.12-2.89-1.5-6.96,1.4-9.09l37.2-27.29c2.89-2.12,6.96-1.5,9.09,1.4,2.12,2.89,1.5,6.96-1.4,9.09l-37.2,27.29c-1.16.85-2.5,1.26-3.84,1.26Z"/>
      </g>
    </g>
  </g>
</svg>